<svg width="18" height="18" viewBox="0 0 18 18" fill="none" xmlns="http://www.w3.org/2000/svg">
<g clip-path="url(#clip0)">
<path d="M15.8268 14.3245C15.7739 14.2902 15.3756 14.0112 14.9769 13.1673C14.2446 11.6175 14.0909 9.43439 14.0909 7.87588C14.0909 7.86909 14.0908 7.86238 14.0905 7.85563C14.0826 5.79586 12.8492 4.02026 11.0842 3.22358V2.00517C11.0842 0.899508 10.1862 0 9.08232 0H8.91642C7.81258 0 6.91455 0.899508 6.91455 2.00517V3.22351C5.14366 4.02275 3.90781 5.80743 3.90781 7.87588C3.90781 9.43439 3.75411 11.6175 3.02184 13.1673C2.62313 14.0112 2.22492 14.2901 2.17197 14.3245C1.94901 14.4277 1.83908 14.6661 1.89037 14.9076C1.94215 15.1516 2.17018 15.3198 2.41919 15.3198H6.28451C6.3061 16.8013 7.51526 18 8.99939 18C10.4835 18 11.6927 16.8013 11.7143 15.3198H15.5796C15.8286 15.3198 16.0566 15.1516 16.1084 14.9076C16.1596 14.6661 16.0497 14.4277 15.8268 14.3245ZM7.96927 2.00517C7.96927 1.48201 8.39417 1.05641 8.91645 1.05641H9.08235C9.60464 1.05641 10.0295 1.48201 10.0295 2.00517V2.88116C9.69667 2.81236 9.35211 2.77615 8.99925 2.77615C8.64649 2.77615 8.30203 2.81232 7.96931 2.88105V2.00517H7.96927ZM8.99939 16.9436C8.09682 16.9436 7.36061 16.2188 7.3392 15.3198H10.6595C10.6382 16.2187 9.90195 16.9436 8.99939 16.9436ZM11.1228 14.2633C11.1227 14.2633 3.62101 14.2633 3.62101 14.2633C3.71224 14.1211 3.80508 13.9602 3.89737 13.7782C4.60415 12.3845 4.96253 10.3987 4.96253 7.87588C4.96253 5.64637 6.7734 3.83256 8.99921 3.83256C11.225 3.83256 13.0359 5.64637 13.0359 7.87764C13.0359 7.88414 13.036 7.89061 13.0362 7.89708C13.0382 10.4098 13.3966 12.3885 14.1014 13.7782C14.1937 13.9602 14.2866 14.1211 14.3778 14.2633H11.1228Z" fill="white"/>
</g>
<defs>
<clipPath id="clip0">
<rect width="18" height="18" fill="white"/>
</clipPath>
</defs>
</svg>
