<svg width="64" height="64" viewBox="0 0 64 64" fill="none" xmlns="http://www.w3.org/2000/svg">
<g clip-path="url(#clip0)">
<mask id="path-1-inside-1" fill="white">
<path d="M62.7985 22.1641L32.7963 9.16318C32.2889 8.94329 31.7131 8.94329 31.2057 9.16318L1.20346 22.1641C-0.399663 22.8588 -0.400037 25.1399 1.20346 25.8345L11.9995 30.5128V43.0007C11.9995 49.7302 20.7852 55.0016 32.001 55.0016C43.2168 55.0016 52.0025 49.7302 52.0025 43.0007V30.5128L54.0026 29.6461V51.0013C54.0026 52.1059 54.8982 53.0014 56.0028 53.0014C57.1074 53.0014 58.0029 52.1059 58.0029 51.0013V27.9127L62.7985 25.8347C64.4016 25.14 64.4019 22.8589 62.7985 22.1641ZM32.001 13.1782L56.9727 23.9994L54.9922 24.8576L32.249 22.0146C31.1528 21.8785 30.1532 22.6552 30.0162 23.7513C29.8792 24.8473 30.6568 25.847 31.7528 25.9841L47.7718 27.9865L32.001 34.8205C17.8928 28.7069 20.8977 30.009 7.02926 23.9993L32.001 13.1782ZM48.0022 43.0008C48.0022 44.8853 46.4554 46.8256 43.7585 48.3238C37.3354 51.8922 26.6853 51.9027 20.2435 48.3238C17.5465 46.8256 15.9998 44.8853 15.9998 43.0008V32.2464L31.2057 38.8356C31.7122 39.0551 32.2879 39.0559 32.7963 38.8356L48.0022 32.2464V43.0008Z"/>
</mask>
<path d="M62.7985 22.1641L32.7963 9.16318C32.2889 8.94329 31.7131 8.94329 31.2057 9.16318L1.20346 22.1641C-0.399663 22.8588 -0.400037 25.1399 1.20346 25.8345L11.9995 30.5128V43.0007C11.9995 49.7302 20.7852 55.0016 32.001 55.0016C43.2168 55.0016 52.0025 49.7302 52.0025 43.0007V30.5128L54.0026 29.6461V51.0013C54.0026 52.1059 54.8982 53.0014 56.0028 53.0014C57.1074 53.0014 58.0029 52.1059 58.0029 51.0013V27.9127L62.7985 25.8347C64.4016 25.14 64.4019 22.8589 62.7985 22.1641ZM32.001 13.1782L56.9727 23.9994L54.9922 24.8576L32.249 22.0146C31.1528 21.8785 30.1532 22.6552 30.0162 23.7513C29.8792 24.8473 30.6568 25.847 31.7528 25.9841L47.7718 27.9865L32.001 34.8205C17.8928 28.7069 20.8977 30.009 7.02926 23.9993L32.001 13.1782ZM48.0022 43.0008C48.0022 44.8853 46.4554 46.8256 43.7585 48.3238C37.3354 51.8922 26.6853 51.9027 20.2435 48.3238C17.5465 46.8256 15.9998 44.8853 15.9998 43.0008V32.2464L31.2057 38.8356C31.7122 39.0551 32.2879 39.0559 32.7963 38.8356L48.0022 32.2464V43.0008Z" fill="#FFFEFE"/>
<path d="M32.7963 9.16318L26.4343 23.8439L26.4346 23.8441L32.7963 9.16318ZM31.2057 9.16318L37.5674 23.8441L37.5677 23.8439L31.2057 9.16318ZM1.20346 22.1641L7.56511 36.8451L7.56518 36.845L1.20346 22.1641ZM1.20346 25.8345L7.5651 11.1536L7.56386 11.1531L1.20346 25.8345ZM11.9995 30.5128H27.9995V20.0084L18.3612 15.8318L11.9995 30.5128ZM52.0025 30.5128L45.641 15.8318L36.0025 20.0083V30.5128H52.0025ZM54.0026 29.6461H70.0026V5.27557L47.6412 14.9651L54.0026 29.6461ZM58.0029 27.9127L51.6414 13.2317L42.0029 17.4083V27.9127H58.0029ZM62.7985 25.8347L69.1601 40.5156L69.1602 40.5156L62.7985 25.8347ZM32.001 13.1782L38.3628 -1.50264L32.001 -4.25942L25.6393 -1.50267L32.001 13.1782ZM56.9727 23.9994L63.3342 38.6804L97.214 23.9998L63.3345 9.31854L56.9727 23.9994ZM54.9922 24.8576L53.0076 40.734L57.3439 41.2761L61.3537 39.5386L54.9922 24.8576ZM32.249 22.0146L34.2336 6.13819L34.2209 6.13661L32.249 22.0146ZM31.7528 25.9841L33.7374 10.1076L33.7374 10.1076L31.7528 25.9841ZM47.7718 27.9865L54.1335 42.6673L107.883 19.3759L49.7564 12.11L47.7718 27.9865ZM32.001 34.8205L25.6392 49.5013L32.001 52.2581L38.3627 49.5014L32.001 34.8205ZM7.02926 23.9993L0.66756 9.31838L-33.2113 23.9992L0.667497 38.6801L7.02926 23.9993ZM43.7585 48.3238L35.9885 34.3372L35.9882 34.3373L43.7585 48.3238ZM20.2435 48.3238L28.0139 34.3374L28.0135 34.3372L20.2435 48.3238ZM15.9998 32.2464L22.3615 17.5655L-0.000194725 7.87539V32.2464H15.9998ZM31.2057 38.8356L37.5678 24.1549L37.5674 24.1547L31.2057 38.8356ZM32.7963 38.8356L39.1569 53.517L39.158 53.5165L32.7963 38.8356ZM48.0022 32.2464H64.0022V7.87539L41.6404 17.5655L48.0022 32.2464ZM69.1602 7.48325L39.158 -5.51771L26.4346 23.8441L56.4368 36.845L69.1602 7.48325ZM39.1583 -5.51758C34.5919 -7.49646 29.41 -7.49646 24.8437 -5.51758L37.5677 23.8439C34.0161 25.383 29.9858 25.383 26.4343 23.8439L39.1583 -5.51758ZM24.844 -5.51771L-5.15826 7.48325L7.56518 36.845L37.5674 23.8441L24.844 -5.51771ZM-5.1582 7.48323C-19.6078 13.7447 -19.6178 34.2512 -5.15695 40.516L7.56386 11.1531C18.8178 16.0286 18.8085 31.973 7.56511 36.8451L-5.1582 7.48323ZM-5.15819 40.5155L5.63787 45.1937L18.3612 15.8318L7.5651 11.1536L-5.15819 40.5155ZM-4.00049 30.5128V43.0007H27.9995V30.5128H-4.00049ZM-4.00049 43.0007C-4.00049 54.0366 3.21142 61.434 9.56238 65.2446C16.1104 69.1734 24.0854 71.0016 32.001 71.0016V39.0016C28.7007 39.0016 26.675 38.1941 26.0262 37.8048C25.737 37.6313 26.1392 37.795 26.6957 38.5975C27.3187 39.496 27.9995 41.0352 27.9995 43.0007H-4.00049ZM32.001 71.0016C39.9166 71.0016 47.8916 69.1734 54.4396 65.2446C60.7906 61.434 68.0025 54.0366 68.0025 43.0007H36.0025C36.0025 41.0352 36.6833 39.496 37.3063 38.5975C37.8628 37.795 38.2649 37.6313 37.9757 37.8048C37.327 38.1941 35.3012 39.0016 32.001 39.0016V71.0016ZM68.0025 43.0007V30.5128H36.0025V43.0007H68.0025ZM58.3639 45.1938L60.3641 44.3271L47.6412 14.9651L45.641 15.8318L58.3639 45.1938ZM38.0026 29.6461V51.0013H70.0026V29.6461H38.0026ZM38.0026 51.0013C38.0026 60.9424 46.0616 69.0014 56.0028 69.0014V37.0014C63.7347 37.0014 70.0026 43.2693 70.0026 51.0013H38.0026ZM56.0028 69.0014C65.9439 69.0014 74.0029 60.9424 74.0029 51.0013H42.0029C42.0029 43.2693 48.2708 37.0014 56.0028 37.0014V69.0014ZM74.0029 51.0013V27.9127H42.0029V51.0013H74.0029ZM64.3645 42.5937L69.1601 40.5156L56.437 11.1537L51.6414 13.2317L64.3645 42.5937ZM69.1602 40.5156C83.6125 34.253 83.6166 13.7477 69.1603 7.48328L56.4367 36.845C45.1872 31.9702 45.1908 16.027 56.4369 11.1537L69.1602 40.5156ZM25.6392 27.8591L50.611 38.6803L63.3345 9.31854L38.3628 -1.50264L25.6392 27.8591ZM50.6112 9.31841L48.6307 10.1766L61.3537 39.5386L63.3342 38.6804L50.6112 9.31841ZM56.9768 8.98115L34.2336 6.13819L30.2644 37.8911L53.0076 40.734L56.9768 8.98115ZM34.2209 6.13661C24.3767 4.91409 15.3742 11.891 14.1398 21.7667L45.8927 25.7358C44.9322 33.4194 37.9289 38.8429 30.2772 37.8927L34.2209 6.13661ZM14.1398 21.7667C12.9067 31.6313 19.9041 40.6275 29.7683 41.8605L33.7374 10.1076C41.4095 11.0666 46.8517 18.0634 45.8927 25.7358L14.1398 21.7667ZM29.7683 41.8605L45.7872 43.8629L49.7564 12.11L33.7374 10.1076L29.7683 41.8605ZM41.4101 13.3056L25.6393 20.1396L38.3627 49.5014L54.1335 42.6673L41.4101 13.3056ZM38.3627 20.1396C24.2546 14.026 27.2595 15.3281 13.391 9.31841L0.667497 38.6801C14.5359 44.6898 11.5311 43.3878 25.6392 49.5013L38.3627 20.1396ZM13.391 38.6802L38.3627 27.8591L25.6393 -1.50267L0.66756 9.31838L13.391 38.6802ZM32.0022 43.0008C32.0022 39.4236 33.4756 36.9687 34.3808 35.8333C34.8501 35.2447 35.2685 34.8691 35.5262 34.6616C35.7889 34.4502 35.958 34.3541 35.9885 34.3372L51.5285 62.3105C55.8944 59.8851 64.0022 53.7606 64.0022 43.0008H32.0022ZM35.9882 34.3373C35.9975 34.3322 35.9049 34.3839 35.6887 34.4627C35.4747 34.5407 35.1772 34.6315 34.7954 34.7167C34.0141 34.891 33.0512 35.0037 32.0031 35.0041C30.955 35.0044 29.9922 34.8923 29.2108 34.7182C28.8289 34.6332 28.5312 34.5424 28.3167 34.4643C28.1001 34.3853 28.0064 34.3332 28.0139 34.3374L12.4731 62.3103C18.6882 65.7632 25.8255 67.006 32.0129 67.0041C38.1995 67.0022 45.3278 65.7554 51.5288 62.3104L35.9882 34.3373ZM28.0135 34.3372C28.0439 34.3541 28.2131 34.4502 28.4757 34.6616C28.7335 34.8691 29.1519 35.2447 29.6212 35.8333C30.5263 36.9687 31.9998 39.4236 31.9998 43.0008H-0.000194725C-0.000194725 53.7606 8.10758 59.8851 12.4735 62.3105L28.0135 34.3372ZM31.9998 43.0008V32.2464H-0.000194725V43.0008H31.9998ZM9.63807 46.9273L24.8439 53.5165L37.5674 24.1547L22.3615 17.5655L9.63807 46.9273ZM24.8436 53.5163C29.4023 55.492 34.5835 55.4984 39.1569 53.517L26.4357 24.1543C29.9923 22.6134 34.0221 22.6183 37.5678 24.1549L24.8436 53.5163ZM39.158 53.5165L54.3639 46.9273L41.6404 17.5655L26.4346 24.1547L39.158 53.5165ZM32.0022 32.2464V43.0008H64.0022V32.2464H32.0022Z" fill="white" mask="url(#path-1-inside-1)"/>
</g>
<defs>
<clipPath id="clip0">
<rect width="64" height="64" fill="white" transform="translate(0.000976562)"/>
</clipPath>
</defs>
</svg>
