<svg width="18" height="18" viewBox="0 0 18 18" fill="none" xmlns="http://www.w3.org/2000/svg">
<g clip-path="url(#clip0)">
<path d="M14.9766 16.937H3.02344C2.40787 16.937 1.90625 16.4354 1.90625 15.8198V7.31128C1.90625 7.27676 1.93424 7.24878 1.96875 7.24878C2.00326 7.24878 2.03125 7.27676 2.03125 7.31128V15.8198C2.03125 16.3673 2.47589 16.812 3.02344 16.812H14.9766C15.5241 16.812 15.9688 16.3673 15.9688 15.8198V7.31128C15.9688 7.27676 15.9967 7.24878 16.0312 7.24878C16.0658 7.24878 16.0938 7.27676 16.0938 7.31128V15.8198C16.0938 16.4354 15.5922 16.937 14.9766 16.937Z" fill="white" stroke="white"/>
<path d="M17.3934 8.76151L17.3933 8.76145L10.3976 1.76583C10.3976 1.76583 10.3976 1.76582 10.3976 1.76582C9.62666 0.994828 8.37334 0.994848 7.60237 1.76582L0.606696 8.76149L0.606667 8.76152C0.58228 8.78591 0.542738 8.78591 0.51835 8.76152L0.518294 8.76146C0.493901 8.73707 0.493903 8.69753 0.518293 8.67314L0.518323 8.67312L7.514 1.67741C8.33306 0.858341 9.66696 0.858349 10.486 1.6774L10.486 1.67741L17.4817 8.67308C17.5061 8.69753 17.5061 8.73705 17.4817 8.76143L17.4815 8.76157C17.4694 8.77377 17.4543 8.77979 17.4375 8.77979C17.4207 8.77979 17.4057 8.7738 17.3934 8.76151Z" fill="white" stroke="white"/>
<path d="M6.8125 16.3119V16.8119H7.3125H10.6875H11.1875V16.3119V11.8822C11.1875 11.2571 10.6798 10.7494 10.0547 10.7494H7.94531C7.32024 10.7494 6.8125 11.2571 6.8125 11.8822V16.3119ZM11.25 16.9369H6.75C6.71549 16.9369 6.6875 16.9089 6.6875 16.8744V11.8822C6.6875 11.1891 7.2522 10.6244 7.94531 10.6244H10.0547C10.7478 10.6244 11.3125 11.1891 11.3125 11.8822V16.8744C11.3125 16.9089 11.2845 16.9369 11.25 16.9369Z" fill="white" stroke="white"/>
</g>
<defs>
<clipPath id="clip0">
<rect width="18" height="18" fill="white"/>
</clipPath>
</defs>
</svg>
