<svg width="18" height="18" viewBox="0 0 18 18" fill="none" xmlns="http://www.w3.org/2000/svg">
<path d="M14.8861 4.73557C14.7227 4.84187 14.6764 5.06048 14.7827 5.22386C15.5212 6.35906 15.8945 7.71901 15.8622 9.15675C15.8579 9.35161 16.0123 9.51315 16.2072 9.51753C16.2099 9.51757 16.2126 9.5176 16.2152 9.5176C16.4065 9.5176 16.5636 9.36474 16.5679 9.1726C16.6034 7.59224 16.1907 6.09368 15.3744 4.83891C15.2681 4.6756 15.0495 4.62933 14.8861 4.73557Z" fill="white"/>
<path d="M15.3653 15.3625C17.0643 13.6628 18 11.4033 18 9C18 6.59601 17.0638 4.33592 15.364 2.63605C15.3638 2.63594 15.3637 2.63587 15.3637 2.63576C15.3635 2.63562 15.3634 2.63548 15.3633 2.63534C15.3631 2.63513 15.3628 2.63492 15.3626 2.63471C13.6628 0.935682 11.4033 0 9 0C6.59668 0 4.33715 0.935682 2.63746 2.63467C2.63725 2.63488 2.63696 2.63509 2.63675 2.63531C2.63661 2.63545 2.63651 2.63559 2.63636 2.63573C2.63626 2.63584 2.63615 2.63591 2.63608 2.63601C0.936177 4.33592 0 6.59601 0 9C0 11.4033 0.935682 13.6628 2.63467 15.3625C2.63488 15.3628 2.63509 15.363 2.63531 15.3632C2.63545 15.3634 2.63559 15.3635 2.63573 15.3636C2.63584 15.3637 2.63591 15.3638 2.63601 15.3639C4.33592 17.0638 6.59601 18 9 18C11.404 18 13.6641 17.0638 15.364 15.364C15.3641 15.3638 15.3641 15.3637 15.3642 15.3637C15.3644 15.3635 15.3645 15.3634 15.3647 15.3633C15.3649 15.363 15.3651 15.3628 15.3653 15.3625ZM15.1068 14.6062L12.548 12.0474C13.2527 11.2281 13.6793 10.163 13.6793 9C13.6793 7.83632 13.2522 6.77058 12.5467 5.95105L15.1054 3.39233C16.4636 4.86985 17.2941 6.83965 17.2941 9C17.2941 11.1596 16.4641 13.1288 15.1068 14.6062ZM5.02659 9C5.02659 6.80905 6.80905 5.02659 9 5.02659C11.191 5.02659 12.9734 6.80905 12.9734 9C12.9734 11.191 11.191 12.9734 9 12.9734C6.80905 12.9734 5.02659 11.191 5.02659 9ZM14.6062 2.89324L12.0474 5.45202C11.2281 4.74727 10.163 4.32071 9 4.32071C7.83702 4.32071 6.77192 4.74727 5.9526 5.45202L3.39378 2.89324C4.87115 1.53586 6.84035 0.705882 9 0.705882C11.1596 0.705882 13.1288 1.53586 14.6062 2.89324ZM2.89458 3.39233L5.45329 5.95105C4.74776 6.77058 4.32067 7.83632 4.32067 9C4.32067 10.163 4.74724 11.2281 5.45199 12.0474L2.8932 14.6062C1.53586 13.1288 0.705882 11.1596 0.705882 9C0.705882 6.83965 1.53642 4.86985 2.89458 3.39233ZM3.39233 15.1054L5.95105 12.5467C6.77058 13.2522 7.83632 13.6793 9 13.6793C10.1637 13.6793 11.2294 13.2522 12.049 12.5467L14.6077 15.1054C13.1302 16.4636 11.1604 17.2941 9 17.2941C6.83965 17.2941 4.86985 16.4636 3.39233 15.1054Z" fill="white"/>
<path d="M16.4378 10.2417C16.3521 10.0136 16.0294 9.95023 15.8625 10.1269C15.6414 10.3453 15.8013 10.7312 16.1121 10.7294C16.355 10.7362 16.5383 10.4636 16.4378 10.2417Z" fill="white"/>
</svg>
