<svg width="18" height="18" viewBox="0 0 18 18" fill="none" xmlns="http://www.w3.org/2000/svg">
<g clip-path="url(#clip0)">
<path d="M15.1885 0H2.81348C1.26266 0 0.000976562 1.26169 0.000976562 2.8125V3.51562C0.000976562 3.90396 0.315766 4.21875 0.704102 4.21875C1.09244 4.21875 1.40723 3.90396 1.40723 3.51562V2.8125C1.40723 2.03709 2.03807 1.40625 2.81348 1.40625H15.1885C15.9639 1.40625 16.5947 2.03709 16.5947 2.8125V15.1875C16.5947 15.9629 15.9639 16.5938 15.1885 16.5938H2.81348C2.03807 16.5938 1.40723 15.9629 1.40723 15.1875V14.4844C1.40723 14.096 1.09244 13.7812 0.704102 13.7812C0.315766 13.7812 0.000976562 14.096 0.000976562 14.4844V15.1875C0.000976562 16.7383 1.26266 18 2.81348 18H15.1885C16.7393 18 18.001 16.7383 18.001 15.1875V2.8125C18.001 1.26169 16.7393 0 15.1885 0Z" fill="white"/>
<path d="M1.61785 9.50195C1.6163 9.50033 1.61472 9.49875 1.61314 9.49717C1.33899 9.22302 1.33899 8.77695 1.61458 8.50136L4.22613 5.87463C4.49992 5.59925 4.49862 5.15407 4.22324 4.88027C3.94786 4.60651 3.50268 4.60777 3.22888 4.88315L0.618779 7.50845C-0.202787 8.33001 -0.203666 9.6663 0.616213 10.489L3.22565 13.1486C3.36332 13.289 3.54536 13.3594 3.72758 13.3594C3.90526 13.3594 4.08311 13.2924 4.2199 13.1582C4.49711 12.8862 4.50136 12.441 4.2294 12.1638L1.61785 9.50195Z" fill="white"/>
<path d="M11.708 8.29688H4.21973C3.83139 8.29688 3.5166 8.61166 3.5166 9C3.5166 9.38834 3.83139 9.70312 4.21973 9.70312H11.708C12.0963 9.70312 12.4111 9.38834 12.4111 9C12.4111 8.61166 12.0963 8.29688 11.708 8.29688Z" fill="white"/>
</g>
<defs>
<clipPath id="clip0">
<rect width="18" height="18" fill="white" transform="translate(0.000976562)"/>
</clipPath>
</defs>
</svg>
