<svg width="18" height="18" viewBox="0 0 18 18" fill="none" xmlns="http://www.w3.org/2000/svg">
<g clip-path="url(#clip0)">
<path d="M12.3916 7.73438C12.3916 7.34604 12.0768 7.03125 11.6885 7.03125H4.44629C4.05795 7.03125 3.74316 7.34604 3.74316 7.73438C3.74316 8.12271 4.05795 8.4375 4.44629 8.4375H11.6885C12.0768 8.4375 12.3916 8.12271 12.3916 7.73438Z" fill="white"/>
<path d="M4.44629 9.84375C4.05795 9.84375 3.74316 10.1585 3.74316 10.5469C3.74316 10.9352 4.05795 11.25 4.44629 11.25H8.84471C9.23305 11.25 9.54783 10.9352 9.54783 10.5469C9.54783 10.1585 9.23305 9.84375 8.84471 9.84375H4.44629Z" fill="white"/>
<path d="M6.09864 16.5938H3.74707C2.97166 16.5938 2.34082 15.9629 2.34082 15.1875V2.8125C2.34082 2.03709 2.97166 1.40625 3.74707 1.40625H12.3916C13.167 1.40625 13.7979 2.03709 13.7979 2.8125V7.13672C13.7979 7.52505 14.1126 7.83984 14.501 7.83984C14.8893 7.83984 15.2041 7.52505 15.2041 7.13672V2.8125C15.2041 1.26169 13.9424 0 12.3916 0H3.74707C2.19626 0 0.93457 1.26169 0.93457 2.8125V15.1875C0.93457 16.7383 2.19626 18 3.74707 18H6.09864C6.48697 18 6.80176 17.6852 6.80176 17.2969C6.80176 16.9085 6.48697 16.5938 6.09864 16.5938Z" fill="white"/>
<path d="M16.4496 10.1803C15.6271 9.35783 14.2889 9.35779 13.467 10.1797L9.60677 14.0314C9.52478 14.1132 9.46432 14.214 9.43064 14.3248L8.58994 17.0925C8.51541 17.3379 8.58035 17.6043 8.75943 17.7879C8.89359 17.9254 9.07584 18 9.26277 18C9.32531 18 9.38845 17.9916 9.45043 17.9744L12.2884 17.1883C12.4052 17.156 12.5117 17.094 12.5974 17.0084L16.4496 13.1634C17.2721 12.341 17.2721 11.0028 16.4496 10.1803ZM11.7348 15.8825L10.3071 16.278L10.7249 14.9024L13.3296 12.3034L14.3242 13.298L11.7348 15.8825ZM15.4557 12.1686L15.3195 12.3046L14.3251 11.3102L14.4609 11.1747C14.735 10.9006 15.1811 10.9006 15.4553 11.1747C15.7294 11.4489 15.7294 11.8949 15.4557 12.1686Z" fill="white"/>
<path d="M11.6885 4.21875H4.44629C4.05795 4.21875 3.74316 4.53354 3.74316 4.92188C3.74316 5.31021 4.05795 5.625 4.44629 5.625H11.6885C12.0768 5.625 12.3916 5.31021 12.3916 4.92188C12.3916 4.53354 12.0768 4.21875 11.6885 4.21875Z" fill="white"/>
</g>
<defs>
<clipPath id="clip0">
<rect width="18" height="18" fill="white" transform="translate(0.000976562)"/>
</clipPath>
</defs>
</svg>
